solid OpenSCAD_Model
  facet normal -1 0 0
    outer loop
      vertex -14 0 2
      vertex -14 175 2
      vertex -14 0 0
    endloop
  endfacet
  facet normal -1 0 0
    outer loop
      vertex -14 0 0
      vertex -14 175 2
      vertex -14 175 0
    endloop
  endfacet
  facet normal 0 0 1
    outer loop
      vertex 128.205 6.38356 2
      vertex -14 0 2
      vertex 172 0 2
    endloop
  endfacet
  facet normal 0 0 1
    outer loop
      vertex 172 175 2
      vertex -14 175 2
      vertex 172 0 2
    endloop
  endfacet
  facet normal 0 0 1
    outer loop
      vertex 126.295 6.38356 2
      vertex 124.5 7.03686 2
      vertex -14 0 2
    endloop
  endfacet
  facet normal 0 0 1
    outer loop
      vertex -14 175 2
      vertex -14 0 2
      vertex 122.082 9.91889 2
    endloop
  endfacet
  facet normal 0 0 1
    outer loop
      vertex 131.463 8.26467 2
      vertex 130 7.03686 2
      vertex 172 0 2
    endloop
  endfacet
  facet normal 0 0 1
    outer loop
      vertex -14 175 2
      vertex 122.082 9.91889 2
      vertex 121.75 11.8 2
    endloop
  endfacet
  facet normal 0 0 1
    outer loop
      vertex 132.418 9.91889 2
      vertex 131.463 8.26467 2
      vertex 172 0 2
    endloop
  endfacet
  facet normal 0 0 1
    outer loop
      vertex -14 175 2
      vertex 121.75 11.8 2
      vertex 122.082 13.6811 2
    endloop
  endfacet
  facet normal 0 0 1
    outer loop
      vertex 132.75 11.8 2
      vertex 132.418 9.91889 2
      vertex 172 0 2
    endloop
  endfacet
  facet normal 0 0 1
    outer loop
      vertex -14 175 2
      vertex 122.082 13.6811 2
      vertex 123.037 15.3353 2
    endloop
  endfacet
  facet normal 0 0 1
    outer loop
      vertex 132.418 13.6811 2
      vertex 132.75 11.8 2
      vertex 172 0 2
    endloop
  endfacet
  facet normal 0 0 1
    outer loop
      vertex -14 175 2
      vertex 123.037 15.3353 2
      vertex 124.5 16.5631 2
    endloop
  endfacet
  facet normal 0 0 1
    outer loop
      vertex -14 175 2
      vertex 124.5 16.5631 2
      vertex 126.295 17.2164 2
    endloop
  endfacet
  facet normal 0 0 1
    outer loop
      vertex -14 175 2
      vertex 126.295 17.2164 2
      vertex 128.205 17.2164 2
    endloop
  endfacet
  facet normal 0 0 1
    outer loop
      vertex -14 175 2
      vertex 130 16.5631 2
      vertex 172 0 2
    endloop
  endfacet
  facet normal 0 0 1
    outer loop
      vertex -14 175 2
      vertex 128.205 17.2164 2
      vertex 130 16.5631 2
    endloop
  endfacet
  facet normal 0 0 1
    outer loop
      vertex 130 7.03686 2
      vertex 128.205 6.38356 2
      vertex 172 0 2
    endloop
  endfacet
  facet normal 0 0 1
    outer loop
      vertex 126.295 6.38356 2
      vertex -14 0 2
      vertex 128.205 6.38356 2
    endloop
  endfacet
  facet normal 0 0 1
    outer loop
      vertex 123.037 8.26467 2
      vertex -14 0 2
      vertex 124.5 7.03686 2
    endloop
  endfacet
  facet normal 0 0 1
    outer loop
      vertex 122.082 9.91889 2
      vertex -14 0 2
      vertex 123.037 8.26467 2
    endloop
  endfacet
  facet normal 0 0 1
    outer loop
      vertex 130 16.5631 2
      vertex 131.463 15.3353 2
      vertex 172 0 2
    endloop
  endfacet
  facet normal 0 0 1
    outer loop
      vertex 131.463 15.3353 2
      vertex 132.418 13.6811 2
      vertex 172 0 2
    endloop
  endfacet
  facet normal 0 -1 0
    outer loop
      vertex 172 0 2
      vertex -14 0 2
      vertex -14 0 0
    endloop
  endfacet
  facet normal 0 -1 0
    outer loop
      vertex 172 0 0
      vertex 172 0 2
      vertex -14 0 0
    endloop
  endfacet
  facet normal 0 0 -1
    outer loop
      vertex 131.463 15.3353 0
      vertex -14 175 0
      vertex 172 0 0
    endloop
  endfacet
  facet normal 0 0 -1
    outer loop
      vertex 172 0 0
      vertex -14 175 0
      vertex 172 175 0
    endloop
  endfacet
  facet normal 0 0 -1
    outer loop
      vertex -14 0 0
      vertex -14 175 0
      vertex 121.75 11.8 0
    endloop
  endfacet
  facet normal 0 0 -1
    outer loop
      vertex -14 0 0
      vertex 121.75 11.8 0
      vertex 122.082 9.91889 0
    endloop
  endfacet
  facet normal 0 0 -1
    outer loop
      vertex -14 0 0
      vertex 122.082 9.91889 0
      vertex 123.037 8.26467 0
    endloop
  endfacet
  facet normal 0 0 -1
    outer loop
      vertex -14 0 0
      vertex 123.037 8.26467 0
      vertex 124.5 7.03686 0
    endloop
  endfacet
  facet normal 0 0 -1
    outer loop
      vertex -14 0 0
      vertex 124.5 7.03686 0
      vertex 126.295 6.38356 0
    endloop
  endfacet
  facet normal 0 0 -1
    outer loop
      vertex -14 0 0
      vertex 126.295 6.38356 0
      vertex 172 0 0
    endloop
  endfacet
  facet normal 0 0 -1
    outer loop
      vertex 126.295 6.38356 0
      vertex 128.205 6.38356 0
      vertex 172 0 0
    endloop
  endfacet
  facet normal 0 0 -1
    outer loop
      vertex 131.463 8.26467 0
      vertex 172 0 0
      vertex 130 7.03686 0
    endloop
  endfacet
  facet normal 0 0 -1
    outer loop
      vertex 132.418 9.91889 0
      vertex 172 0 0
      vertex 131.463 8.26467 0
    endloop
  endfacet
  facet normal 0 0 -1
    outer loop
      vertex 128.205 17.2164 0
      vertex -14 175 0
      vertex 130 16.5631 0
    endloop
  endfacet
  facet normal 0 0 -1
    outer loop
      vertex 124.5 16.5631 0
      vertex -14 175 0
      vertex 126.295 17.2164 0
    endloop
  endfacet
  facet normal 0 0 -1
    outer loop
      vertex 132.418 9.91889 0
      vertex 132.75 11.8 0
      vertex 172 0 0
    endloop
  endfacet
  facet normal 0 0 -1
    outer loop
      vertex 126.295 17.2164 0
      vertex -14 175 0
      vertex 128.205 17.2164 0
    endloop
  endfacet
  facet normal 0 0 -1
    outer loop
      vertex 132.75 11.8 0
      vertex 132.418 13.6811 0
      vertex 172 0 0
    endloop
  endfacet
  facet normal 0 0 -1
    outer loop
      vertex 130 16.5631 0
      vertex -14 175 0
      vertex 131.463 15.3353 0
    endloop
  endfacet
  facet normal 0 0 -1
    outer loop
      vertex 132.418 13.6811 0
      vertex 131.463 15.3353 0
      vertex 172 0 0
    endloop
  endfacet
  facet normal 0 0 -1
    outer loop
      vertex 123.037 15.3353 0
      vertex -14 175 0
      vertex 124.5 16.5631 0
    endloop
  endfacet
  facet normal 0 0 -1
    outer loop
      vertex 122.082 13.6811 0
      vertex -14 175 0
      vertex 123.037 15.3353 0
    endloop
  endfacet
  facet normal 0 0 -1
    outer loop
      vertex 121.75 11.8 0
      vertex -14 175 0
      vertex 122.082 13.6811 0
    endloop
  endfacet
  facet normal 0 0 -1
    outer loop
      vertex 130 7.03686 0
      vertex 172 0 0
      vertex 128.205 6.38356 0
    endloop
  endfacet
  facet normal 0 1 0
    outer loop
      vertex -14 175 2
      vertex 172 175 2
      vertex -14 175 0
    endloop
  endfacet
  facet normal 0 1 0
    outer loop
      vertex -14 175 0
      vertex 172 175 2
      vertex 172 175 0
    endloop
  endfacet
  facet normal 1 0 0
    outer loop
      vertex 172 175 2
      vertex 172 0 2
      vertex 172 0 0
    endloop
  endfacet
  facet normal 1 0 0
    outer loop
      vertex 172 175 0
      vertex 172 175 2
      vertex 172 0 0
    endloop
  endfacet
  facet normal 0.984808 0.173648 0
    outer loop
      vertex 122.082 9.91889 2
      vertex 122.082 9.91889 0
      vertex 121.75 11.8 0
    endloop
  endfacet
  facet normal 0.984808 0.173648 0
    outer loop
      vertex 121.75 11.8 2
      vertex 122.082 9.91889 2
      vertex 121.75 11.8 0
    endloop
  endfacet
  facet normal 0.866025 0.5 0
    outer loop
      vertex 123.037 8.26467 2
      vertex 123.037 8.26467 0
      vertex 122.082 9.91889 0
    endloop
  endfacet
  facet normal 0.866025 0.5 0
    outer loop
      vertex 122.082 9.91889 2
      vertex 123.037 8.26467 2
      vertex 122.082 9.91889 0
    endloop
  endfacet
  facet normal 0.642788 0.766044 0
    outer loop
      vertex 124.5 7.03686 0
      vertex 123.037 8.26467 0
      vertex 124.5 7.03686 2
    endloop
  endfacet
  facet normal 0.642788 0.766044 0
    outer loop
      vertex 124.5 7.03686 2
      vertex 123.037 8.26467 0
      vertex 123.037 8.26467 2
    endloop
  endfacet
  facet normal 0.34202 0.939693 0
    outer loop
      vertex 126.295 6.38356 0
      vertex 124.5 7.03686 0
      vertex 126.295 6.38356 2
    endloop
  endfacet
  facet normal 0.34202 0.939693 0
    outer loop
      vertex 126.295 6.38356 2
      vertex 124.5 7.03686 0
      vertex 124.5 7.03686 2
    endloop
  endfacet
  facet normal 0 1 0
    outer loop
      vertex 128.205 6.38356 0
      vertex 126.295 6.38356 0
      vertex 128.205 6.38356 2
    endloop
  endfacet
  facet normal 0 1 0
    outer loop
      vertex 128.205 6.38356 2
      vertex 126.295 6.38356 0
      vertex 126.295 6.38356 2
    endloop
  endfacet
  facet normal -0.34202 0.939693 0
    outer loop
      vertex 130 7.03686 0
      vertex 128.205 6.38356 0
      vertex 130 7.03686 2
    endloop
  endfacet
  facet normal -0.34202 0.939693 0
    outer loop
      vertex 130 7.03686 2
      vertex 128.205 6.38356 0
      vertex 128.205 6.38356 2
    endloop
  endfacet
  facet normal -0.642788 0.766044 0
    outer loop
      vertex 131.463 8.26467 0
      vertex 130 7.03686 0
      vertex 131.463 8.26467 2
    endloop
  endfacet
  facet normal -0.642788 0.766044 0
    outer loop
      vertex 131.463 8.26467 2
      vertex 130 7.03686 0
      vertex 130 7.03686 2
    endloop
  endfacet
  facet normal -0.866025 0.5 0
    outer loop
      vertex 132.418 9.91889 0
      vertex 131.463 8.26467 0
      vertex 132.418 9.91889 2
    endloop
  endfacet
  facet normal -0.866025 0.5 0
    outer loop
      vertex 132.418 9.91889 2
      vertex 131.463 8.26467 0
      vertex 131.463 8.26467 2
    endloop
  endfacet
  facet normal -0.984808 0.173648 0
    outer loop
      vertex 132.75 11.8 0
      vertex 132.418 9.91889 0
      vertex 132.75 11.8 2
    endloop
  endfacet
  facet normal -0.984808 0.173648 0
    outer loop
      vertex 132.75 11.8 2
      vertex 132.418 9.91889 0
      vertex 132.418 9.91889 2
    endloop
  endfacet
  facet normal -0.984808 -0.173648 0
    outer loop
      vertex 132.75 11.8 0
      vertex 132.75 11.8 2
      vertex 132.418 13.6811 0
    endloop
  endfacet
  facet normal -0.984808 -0.173648 0
    outer loop
      vertex 132.418 13.6811 0
      vertex 132.75 11.8 2
      vertex 132.418 13.6811 2
    endloop
  endfacet
  facet normal -0.866025 -0.5 0
    outer loop
      vertex 132.418 13.6811 0
      vertex 132.418 13.6811 2
      vertex 131.463 15.3353 0
    endloop
  endfacet
  facet normal -0.866025 -0.5 0
    outer loop
      vertex 131.463 15.3353 0
      vertex 132.418 13.6811 2
      vertex 131.463 15.3353 2
    endloop
  endfacet
  facet normal -0.642788 -0.766044 0
    outer loop
      vertex 130 16.5631 0
      vertex 131.463 15.3353 0
      vertex 131.463 15.3353 2
    endloop
  endfacet
  facet normal -0.642788 -0.766044 0
    outer loop
      vertex 130 16.5631 2
      vertex 130 16.5631 0
      vertex 131.463 15.3353 2
    endloop
  endfacet
  facet normal -0.34202 -0.939693 0
    outer loop
      vertex 128.205 17.2164 0
      vertex 130 16.5631 0
      vertex 130 16.5631 2
    endloop
  endfacet
  facet normal -0.34202 -0.939693 0
    outer loop
      vertex 128.205 17.2164 2
      vertex 128.205 17.2164 0
      vertex 130 16.5631 2
    endloop
  endfacet
  facet normal 0 -1 0
    outer loop
      vertex 126.295 17.2164 0
      vertex 128.205 17.2164 0
      vertex 128.205 17.2164 2
    endloop
  endfacet
  facet normal 0 -1 0
    outer loop
      vertex 126.295 17.2164 2
      vertex 126.295 17.2164 0
      vertex 128.205 17.2164 2
    endloop
  endfacet
  facet normal 0.34202 -0.939693 0
    outer loop
      vertex 124.5 16.5631 0
      vertex 126.295 17.2164 0
      vertex 126.295 17.2164 2
    endloop
  endfacet
  facet normal 0.34202 -0.939693 0
    outer loop
      vertex 124.5 16.5631 2
      vertex 124.5 16.5631 0
      vertex 126.295 17.2164 2
    endloop
  endfacet
  facet normal 0.642788 -0.766044 0
    outer loop
      vertex 123.037 15.3353 0
      vertex 124.5 16.5631 0
      vertex 124.5 16.5631 2
    endloop
  endfacet
  facet normal 0.642788 -0.766044 0
    outer loop
      vertex 123.037 15.3353 2
      vertex 123.037 15.3353 0
      vertex 124.5 16.5631 2
    endloop
  endfacet
  facet normal 0.866025 -0.5 0
    outer loop
      vertex 122.082 13.6811 0
      vertex 123.037 15.3353 0
      vertex 123.037 15.3353 2
    endloop
  endfacet
  facet normal 0.866025 -0.5 0
    outer loop
      vertex 122.082 13.6811 2
      vertex 122.082 13.6811 0
      vertex 123.037 15.3353 2
    endloop
  endfacet
  facet normal 0.984808 -0.173648 0
    outer loop
      vertex 121.75 11.8 0
      vertex 122.082 13.6811 0
      vertex 122.082 13.6811 2
    endloop
  endfacet
  facet normal 0.984808 -0.173648 0
    outer loop
      vertex 121.75 11.8 2
      vertex 121.75 11.8 0
      vertex 122.082 13.6811 2
    endloop
  endfacet
endsolid OpenSCAD_Model
