solid OpenSCAD_Model
  facet normal -1 0 0
    outer loop
      vertex 0 20 0
      vertex 0 5 5
      vertex 0 20 5
    endloop
  endfacet
  facet normal -1 0 0
    outer loop
      vertex 0 0 0
      vertex 0 5 5
      vertex 0 20 0
    endloop
  endfacet
  facet normal -1 0 0
    outer loop
      vertex 0 0 20
      vertex 0 5 5
      vertex 0 0 0
    endloop
  endfacet
  facet normal -1 0 0
    outer loop
      vertex 0 5 5
      vertex 0 0 20
      vertex 0 5 20
    endloop
  endfacet
  facet normal -0 0 1
    outer loop
      vertex 0 5 20
      vertex 175 0 20
      vertex 175 5 20
    endloop
  endfacet
  facet normal 0 0 1
    outer loop
      vertex 175 0 20
      vertex 0 5 20
      vertex 0 0 20
    endloop
  endfacet
  facet normal 1 0 0
    outer loop
      vertex 175 5 20
      vertex 175 0 20
      vertex 175 5 5
    endloop
  endfacet
  facet normal 1 -0 0
    outer loop
      vertex 175 5 5
      vertex 175 20 0
      vertex 175 20 5
    endloop
  endfacet
  facet normal 1 0 0
    outer loop
      vertex 175 5 5
      vertex 175 0 0
      vertex 175 20 0
    endloop
  endfacet
  facet normal 1 0 0
    outer loop
      vertex 175 0 0
      vertex 175 5 5
      vertex 175 0 20
    endloop
  endfacet
  facet normal 0 1 -0
    outer loop
      vertex 175 20 0
      vertex 0 20 5
      vertex 175 20 5
    endloop
  endfacet
  facet normal 0 1 0
    outer loop
      vertex 0 20 5
      vertex 175 20 0
      vertex 0 20 0
    endloop
  endfacet
  facet normal 0 0 -1
    outer loop
      vertex 0 0 0
      vertex 175 20 0
      vertex 175 0 0
    endloop
  endfacet
  facet normal -0 0 -1
    outer loop
      vertex 175 20 0
      vertex 0 0 0
      vertex 0 20 0
    endloop
  endfacet
  facet normal 0 -1 0
    outer loop
      vertex 0 0 0
      vertex 175 0 20
      vertex 0 0 20
    endloop
  endfacet
  facet normal 0 -1 -0
    outer loop
      vertex 175 0 20
      vertex 0 0 0
      vertex 175 0 0
    endloop
  endfacet
  facet normal -0 0 1
    outer loop
      vertex 0 20 5
      vertex 175 5 5
      vertex 175 20 5
    endloop
  endfacet
  facet normal 0 0 1
    outer loop
      vertex 175 5 5
      vertex 0 20 5
      vertex 0 5 5
    endloop
  endfacet
  facet normal 0 1 -0
    outer loop
      vertex 175 5 5
      vertex 0 5 20
      vertex 175 5 20
    endloop
  endfacet
  facet normal 0 1 0
    outer loop
      vertex 0 5 20
      vertex 175 5 5
      vertex 0 5 5
    endloop
  endfacet
  facet normal -1 0 0
    outer loop
      vertex 0 25 0
      vertex 0 37 12
      vertex 0 37 0
    endloop
  endfacet
  facet normal -1 -0 0
    outer loop
      vertex 0 37 12
      vertex 0 25 0
      vertex 0 25 12
    endloop
  endfacet
  facet normal -0 0 1
    outer loop
      vertex 0 37 12
      vertex 175 25 12
      vertex 175 37 12
    endloop
  endfacet
  facet normal 0 0 1
    outer loop
      vertex 175 25 12
      vertex 0 37 12
      vertex 0 25 12
    endloop
  endfacet
  facet normal 1 -0 0
    outer loop
      vertex 175 25 12
      vertex 175 37 0
      vertex 175 37 12
    endloop
  endfacet
  facet normal 1 0 0
    outer loop
      vertex 175 37 0
      vertex 175 25 12
      vertex 175 25 0
    endloop
  endfacet
  facet normal 0 0 -1
    outer loop
      vertex 0 25 0
      vertex 175 37 0
      vertex 175 25 0
    endloop
  endfacet
  facet normal -0 0 -1
    outer loop
      vertex 175 37 0
      vertex 0 25 0
      vertex 0 37 0
    endloop
  endfacet
  facet normal 0 -1 0
    outer loop
      vertex 0 25 0
      vertex 175 25 12
      vertex 0 25 12
    endloop
  endfacet
  facet normal 0 -1 -0
    outer loop
      vertex 175 25 12
      vertex 0 25 0
      vertex 175 25 0
    endloop
  endfacet
  facet normal 0 1 -0
    outer loop
      vertex 175 37 0
      vertex 0 37 12
      vertex 175 37 12
    endloop
  endfacet
  facet normal 0 1 0
    outer loop
      vertex 0 37 12
      vertex 175 37 0
      vertex 0 37 0
    endloop
  endfacet
  facet normal -1 0 0
    outer loop
      vertex 0 70 0
      vertex 0 55 5
      vertex 0 70 5
    endloop
  endfacet
  facet normal -1 0 0
    outer loop
      vertex 0 50 0
      vertex 0 55 5
      vertex 0 70 0
    endloop
  endfacet
  facet normal -1 0 0
    outer loop
      vertex 0 50 20
      vertex 0 55 5
      vertex 0 50 0
    endloop
  endfacet
  facet normal -1 0 0
    outer loop
      vertex 0 55 5
      vertex 0 50 20
      vertex 0 55 20
    endloop
  endfacet
  facet normal -0 0 1
    outer loop
      vertex 0 55 20
      vertex 175 50 20
      vertex 175 55 20
    endloop
  endfacet
  facet normal 0 0 1
    outer loop
      vertex 175 50 20
      vertex 0 55 20
      vertex 0 50 20
    endloop
  endfacet
  facet normal 1 0 0
    outer loop
      vertex 175 55 20
      vertex 175 50 20
      vertex 175 55 5
    endloop
  endfacet
  facet normal 1 -0 0
    outer loop
      vertex 175 55 5
      vertex 175 70 0
      vertex 175 70 5
    endloop
  endfacet
  facet normal 1 0 0
    outer loop
      vertex 175 55 5
      vertex 175 50 0
      vertex 175 70 0
    endloop
  endfacet
  facet normal 1 0 0
    outer loop
      vertex 175 50 0
      vertex 175 55 5
      vertex 175 50 20
    endloop
  endfacet
  facet normal 0 1 -0
    outer loop
      vertex 175 70 0
      vertex 0 70 5
      vertex 175 70 5
    endloop
  endfacet
  facet normal 0 1 0
    outer loop
      vertex 0 70 5
      vertex 175 70 0
      vertex 0 70 0
    endloop
  endfacet
  facet normal 0 0 -1
    outer loop
      vertex 0 50 0
      vertex 175 70 0
      vertex 175 50 0
    endloop
  endfacet
  facet normal -0 0 -1
    outer loop
      vertex 175 70 0
      vertex 0 50 0
      vertex 0 70 0
    endloop
  endfacet
  facet normal 0 -1 0
    outer loop
      vertex 0 50 0
      vertex 175 50 20
      vertex 0 50 20
    endloop
  endfacet
  facet normal 0 -1 -0
    outer loop
      vertex 175 50 20
      vertex 0 50 0
      vertex 175 50 0
    endloop
  endfacet
  facet normal -0 0 1
    outer loop
      vertex 0 70 5
      vertex 175 55 5
      vertex 175 70 5
    endloop
  endfacet
  facet normal 0 0 1
    outer loop
      vertex 175 55 5
      vertex 0 70 5
      vertex 0 55 5
    endloop
  endfacet
  facet normal 0 1 -0
    outer loop
      vertex 175 55 5
      vertex 0 55 20
      vertex 175 55 20
    endloop
  endfacet
  facet normal 0 1 0
    outer loop
      vertex 0 55 20
      vertex 175 55 5
      vertex 0 55 5
    endloop
  endfacet
  facet normal -1 0 0
    outer loop
      vertex 0 75 0
      vertex 0 87 12
      vertex 0 87 0
    endloop
  endfacet
  facet normal -1 -0 0
    outer loop
      vertex 0 87 12
      vertex 0 75 0
      vertex 0 75 12
    endloop
  endfacet
  facet normal -0 0 1
    outer loop
      vertex 0 87 12
      vertex 175 75 12
      vertex 175 87 12
    endloop
  endfacet
  facet normal 0 0 1
    outer loop
      vertex 175 75 12
      vertex 0 87 12
      vertex 0 75 12
    endloop
  endfacet
  facet normal 1 -0 0
    outer loop
      vertex 175 75 12
      vertex 175 87 0
      vertex 175 87 12
    endloop
  endfacet
  facet normal 1 0 0
    outer loop
      vertex 175 87 0
      vertex 175 75 12
      vertex 175 75 0
    endloop
  endfacet
  facet normal 0 0 -1
    outer loop
      vertex 0 75 0
      vertex 175 87 0
      vertex 175 75 0
    endloop
  endfacet
  facet normal -0 0 -1
    outer loop
      vertex 175 87 0
      vertex 0 75 0
      vertex 0 87 0
    endloop
  endfacet
  facet normal 0 -1 0
    outer loop
      vertex 0 75 0
      vertex 175 75 12
      vertex 0 75 12
    endloop
  endfacet
  facet normal 0 -1 -0
    outer loop
      vertex 175 75 12
      vertex 0 75 0
      vertex 175 75 0
    endloop
  endfacet
  facet normal 0 1 -0
    outer loop
      vertex 175 87 0
      vertex 0 87 12
      vertex 175 87 12
    endloop
  endfacet
  facet normal 0 1 0
    outer loop
      vertex 0 87 12
      vertex 175 87 0
      vertex 0 87 0
    endloop
  endfacet
  facet normal -1 0 0
    outer loop
      vertex 0 120 0
      vertex 0 105 5
      vertex 0 120 5
    endloop
  endfacet
  facet normal -1 0 0
    outer loop
      vertex 0 100 0
      vertex 0 105 5
      vertex 0 120 0
    endloop
  endfacet
  facet normal -1 0 0
    outer loop
      vertex 0 100 20
      vertex 0 105 5
      vertex 0 100 0
    endloop
  endfacet
  facet normal -1 0 0
    outer loop
      vertex 0 105 5
      vertex 0 100 20
      vertex 0 105 20
    endloop
  endfacet
  facet normal -0 0 1
    outer loop
      vertex 0 105 20
      vertex 175 100 20
      vertex 175 105 20
    endloop
  endfacet
  facet normal 0 0 1
    outer loop
      vertex 175 100 20
      vertex 0 105 20
      vertex 0 100 20
    endloop
  endfacet
  facet normal 1 0 0
    outer loop
      vertex 175 105 20
      vertex 175 100 20
      vertex 175 105 5
    endloop
  endfacet
  facet normal 1 -0 0
    outer loop
      vertex 175 105 5
      vertex 175 120 0
      vertex 175 120 5
    endloop
  endfacet
  facet normal 1 0 0
    outer loop
      vertex 175 105 5
      vertex 175 100 0
      vertex 175 120 0
    endloop
  endfacet
  facet normal 1 0 0
    outer loop
      vertex 175 100 0
      vertex 175 105 5
      vertex 175 100 20
    endloop
  endfacet
  facet normal 0 0 -1
    outer loop
      vertex 0 100 0
      vertex 175 120 0
      vertex 175 100 0
    endloop
  endfacet
  facet normal -0 0 -1
    outer loop
      vertex 175 120 0
      vertex 0 100 0
      vertex 0 120 0
    endloop
  endfacet
  facet normal 0 -1 0
    outer loop
      vertex 0 100 0
      vertex 175 100 20
      vertex 0 100 20
    endloop
  endfacet
  facet normal 0 -1 -0
    outer loop
      vertex 175 100 20
      vertex 0 100 0
      vertex 175 100 0
    endloop
  endfacet
  facet normal 0 1 -0
    outer loop
      vertex 175 120 0
      vertex 0 120 5
      vertex 175 120 5
    endloop
  endfacet
  facet normal 0 1 0
    outer loop
      vertex 0 120 5
      vertex 175 120 0
      vertex 0 120 0
    endloop
  endfacet
  facet normal -0 0 1
    outer loop
      vertex 0 120 5
      vertex 175 105 5
      vertex 175 120 5
    endloop
  endfacet
  facet normal 0 0 1
    outer loop
      vertex 175 105 5
      vertex 0 120 5
      vertex 0 105 5
    endloop
  endfacet
  facet normal 0 1 -0
    outer loop
      vertex 175 105 5
      vertex 0 105 20
      vertex 175 105 20
    endloop
  endfacet
  facet normal 0 1 0
    outer loop
      vertex 0 105 20
      vertex 175 105 5
      vertex 0 105 5
    endloop
  endfacet
  facet normal -1 0 0
    outer loop
      vertex 0 125 0
      vertex 0 137 12
      vertex 0 137 0
    endloop
  endfacet
  facet normal -1 -0 0
    outer loop
      vertex 0 137 12
      vertex 0 125 0
      vertex 0 125 12
    endloop
  endfacet
  facet normal -0 0 1
    outer loop
      vertex 0 137 12
      vertex 175 125 12
      vertex 175 137 12
    endloop
  endfacet
  facet normal 0 0 1
    outer loop
      vertex 175 125 12
      vertex 0 137 12
      vertex 0 125 12
    endloop
  endfacet
  facet normal 1 -0 0
    outer loop
      vertex 175 125 12
      vertex 175 137 0
      vertex 175 137 12
    endloop
  endfacet
  facet normal 1 0 0
    outer loop
      vertex 175 137 0
      vertex 175 125 12
      vertex 175 125 0
    endloop
  endfacet
  facet normal 0 1 -0
    outer loop
      vertex 175 137 0
      vertex 0 137 12
      vertex 175 137 12
    endloop
  endfacet
  facet normal 0 1 0
    outer loop
      vertex 0 137 12
      vertex 175 137 0
      vertex 0 137 0
    endloop
  endfacet
  facet normal 0 0 -1
    outer loop
      vertex 0 125 0
      vertex 175 137 0
      vertex 175 125 0
    endloop
  endfacet
  facet normal -0 0 -1
    outer loop
      vertex 175 137 0
      vertex 0 125 0
      vertex 0 137 0
    endloop
  endfacet
  facet normal 0 -1 0
    outer loop
      vertex 0 125 0
      vertex 175 125 12
      vertex 0 125 12
    endloop
  endfacet
  facet normal 0 -1 -0
    outer loop
      vertex 175 125 12
      vertex 0 125 0
      vertex 175 125 0
    endloop
  endfacet
  facet normal -1 0 0
    outer loop
      vertex 0 170 0
      vertex 0 155 5
      vertex 0 170 5
    endloop
  endfacet
  facet normal -1 0 0
    outer loop
      vertex 0 150 0
      vertex 0 155 5
      vertex 0 170 0
    endloop
  endfacet
  facet normal -1 0 0
    outer loop
      vertex 0 150 20
      vertex 0 155 5
      vertex 0 150 0
    endloop
  endfacet
  facet normal -1 0 0
    outer loop
      vertex 0 155 5
      vertex 0 150 20
      vertex 0 155 20
    endloop
  endfacet
  facet normal -0 0 1
    outer loop
      vertex 0 155 20
      vertex 175 150 20
      vertex 175 155 20
    endloop
  endfacet
  facet normal 0 0 1
    outer loop
      vertex 175 150 20
      vertex 0 155 20
      vertex 0 150 20
    endloop
  endfacet
  facet normal 1 0 0
    outer loop
      vertex 175 155 20
      vertex 175 150 20
      vertex 175 155 5
    endloop
  endfacet
  facet normal 1 -0 0
    outer loop
      vertex 175 155 5
      vertex 175 170 0
      vertex 175 170 5
    endloop
  endfacet
  facet normal 1 0 0
    outer loop
      vertex 175 155 5
      vertex 175 150 0
      vertex 175 170 0
    endloop
  endfacet
  facet normal 1 0 0
    outer loop
      vertex 175 150 0
      vertex 175 155 5
      vertex 175 150 20
    endloop
  endfacet
  facet normal 0 1 -0
    outer loop
      vertex 175 170 0
      vertex 0 170 5
      vertex 175 170 5
    endloop
  endfacet
  facet normal 0 1 0
    outer loop
      vertex 0 170 5
      vertex 175 170 0
      vertex 0 170 0
    endloop
  endfacet
  facet normal 0 0 -1
    outer loop
      vertex 0 150 0
      vertex 175 170 0
      vertex 175 150 0
    endloop
  endfacet
  facet normal -0 0 -1
    outer loop
      vertex 175 170 0
      vertex 0 150 0
      vertex 0 170 0
    endloop
  endfacet
  facet normal 0 -1 0
    outer loop
      vertex 0 150 0
      vertex 175 150 20
      vertex 0 150 20
    endloop
  endfacet
  facet normal 0 -1 -0
    outer loop
      vertex 175 150 20
      vertex 0 150 0
      vertex 175 150 0
    endloop
  endfacet
  facet normal -0 0 1
    outer loop
      vertex 0 170 5
      vertex 175 155 5
      vertex 175 170 5
    endloop
  endfacet
  facet normal 0 0 1
    outer loop
      vertex 175 155 5
      vertex 0 170 5
      vertex 0 155 5
    endloop
  endfacet
  facet normal 0 1 -0
    outer loop
      vertex 175 155 5
      vertex 0 155 20
      vertex 175 155 20
    endloop
  endfacet
  facet normal 0 1 0
    outer loop
      vertex 0 155 20
      vertex 175 155 5
      vertex 0 155 5
    endloop
  endfacet
  facet normal -1 0 0
    outer loop
      vertex 0 175 0
      vertex 0 187 12
      vertex 0 187 0
    endloop
  endfacet
  facet normal -1 -0 0
    outer loop
      vertex 0 187 12
      vertex 0 175 0
      vertex 0 175 12
    endloop
  endfacet
  facet normal -0 0 1
    outer loop
      vertex 0 187 12
      vertex 175 175 12
      vertex 175 187 12
    endloop
  endfacet
  facet normal 0 0 1
    outer loop
      vertex 175 175 12
      vertex 0 187 12
      vertex 0 175 12
    endloop
  endfacet
  facet normal 1 -0 0
    outer loop
      vertex 175 175 12
      vertex 175 187 0
      vertex 175 187 12
    endloop
  endfacet
  facet normal 1 0 0
    outer loop
      vertex 175 187 0
      vertex 175 175 12
      vertex 175 175 0
    endloop
  endfacet
  facet normal 0 1 -0
    outer loop
      vertex 175 187 0
      vertex 0 187 12
      vertex 175 187 12
    endloop
  endfacet
  facet normal 0 1 0
    outer loop
      vertex 0 187 12
      vertex 175 187 0
      vertex 0 187 0
    endloop
  endfacet
  facet normal 0 0 -1
    outer loop
      vertex 0 175 0
      vertex 175 187 0
      vertex 175 175 0
    endloop
  endfacet
  facet normal -0 0 -1
    outer loop
      vertex 175 187 0
      vertex 0 175 0
      vertex 0 187 0
    endloop
  endfacet
  facet normal 0 -1 0
    outer loop
      vertex 0 175 0
      vertex 175 175 12
      vertex 0 175 12
    endloop
  endfacet
  facet normal 0 -1 -0
    outer loop
      vertex 175 175 12
      vertex 0 175 0
      vertex 175 175 0
    endloop
  endfacet
endsolid OpenSCAD_Model
